<svg width="33" height="33" viewBox="0 0 33 33" fill="none" xmlns="http://www.w3.org/2000/svg">
<path d="M16.1936 24.0718L6.73069 13.5622L9.67863 10.8127L14.5994 16.2777L15.4524 3.79831e-05L19.447 0.209382L18.5939 16.4871L24.0589 11.5663L26.7033 14.6089L16.1936 24.0718ZM3.79139 31.4328C2.69289 31.3753 1.77302 30.9349 1.03175 30.1116C0.290488 29.2883 -0.051359 28.3275 0.00621065 27.229L0.320227 21.2372L4.31475 21.4465L4.00073 27.4383L27.9679 28.6944L28.2819 22.7026L32.2764 22.9119L31.9624 28.9037C31.9048 30.0022 31.4644 30.9221 30.6411 31.6634C29.8179 32.4046 28.857 32.7465 27.7585 32.6889L3.79139 31.4328Z" fill="white"/>
</svg>
