<svg width="64" height="60" viewBox="0 0 64 60" fill="none" xmlns="http://www.w3.org/2000/svg">
<path d="M6.66667 53.3333V6.66667C6.66667 6.66667 6.66667 7.90278 6.66667 10.375C6.66667 12.8472 6.66667 16.0556 6.66667 20V40C6.66667 43.9444 6.66667 47.1528 6.66667 49.625C6.66667 52.0972 6.66667 53.3333 6.66667 53.3333ZM6.66667 60C4.83333 60 3.26389 59.3472 1.95833 58.0417C0.652778 56.7361 0 55.1667 0 53.3333V6.66667C0 4.83333 0.652778 3.26389 1.95833 1.95833C3.26389 0.652778 4.83333 0 6.66667 0H53.3333C55.1667 0 56.7361 0.652778 58.0417 1.95833C59.3472 3.26389 60 4.83333 60 6.66667V15H53.3333V6.66667H6.66667V53.3333H53.3333V45H60V53.3333C60 55.1667 59.3472 56.7361 58.0417 58.0417C56.7361 59.3472 55.1667 60 53.3333 60H6.66667ZM33.3333 46.6667C31.5 46.6667 29.9306 46.0139 28.625 44.7083C27.3194 43.4028 26.6667 41.8333 26.6667 40V20C26.6667 18.1667 27.3194 16.5972 28.625 15.2917C29.9306 13.9861 31.5 13.3333 33.3333 13.3333H56.6667C58.5 13.3333 60.0694 13.9861 61.375 15.2917C62.6806 16.5972 63.3333 18.1667 63.3333 20V40C63.3333 41.8333 62.6806 43.4028 61.375 44.7083C60.0694 46.0139 58.5 46.6667 56.6667 46.6667H33.3333ZM56.6667 40V20H33.3333V40H56.6667ZM43.3333 35C44.7222 35 45.9028 34.5139 46.875 33.5417C47.8472 32.5694 48.3333 31.3889 48.3333 30C48.3333 28.6111 47.8472 27.4306 46.875 26.4583C45.9028 25.4861 44.7222 25 43.3333 25C41.9444 25 40.7639 25.4861 39.7917 26.4583C38.8194 27.4306 38.3333 28.6111 38.3333 30C38.3333 31.3889 38.8194 32.5694 39.7917 33.5417C40.7639 34.5139 41.9444 35 43.3333 35Z" fill="#FF4929"/>
</svg>
